<?xml version="1.0" encoding="UTF-8"?>
<svg id="a" data-name="Layer 1" xmlns="http://www.w3.org/2000/svg" viewBox="0 0 353.98 353.98">
  <circle cx="176.99" cy="176.99" r="176.99" style="fill: #fff; stroke-width: 0px;"/>
  <line x1="101.2" y1="246.05" x2="265.22" y2="82.03" style="fill: none; stroke: #141414; stroke-width: 6px;"/>
  <path d="m165.24,83.03h-16.43v41.79l-27.48-41.79h-16.43v67.45h16.43v-41.6l27.48,41.6h16.43v-67.45Z" style="fill: #222; fill-rule: evenodd; stroke-width: 0px;"/>
  <path d="m230.94,169.89v47.13c0,2.5-.56,4.4-1.68,5.72-1.12,1.31-2.69,1.97-4.73,1.97-2.23,0-3.94-.74-5.13-2.22-1.18-1.48-1.77-3.66-1.77-6.56h-16.76c0,7.62,2.2,13.51,6.61,17.65s10.25,6.21,17.55,6.21,12.5-1.97,16.61-5.92,6.16-9.56,6.16-16.86v-47.13h-16.86Z" style="fill: #222; fill-rule: evenodd; stroke-width: 0px;"/>
</svg>